# xmcd
#
# Track frame offsets: 
#        150
#        17077
#        37928
#        56172
#
# Disc length: 1012 seconds
#
# Revision: 0
# Processed by: cddbd v1.5.2PL0 Copyright (c) Steve Scherf et al.
# Submitted via: ExactAudioCopy v0.95a5
#
DISCID=2a03f204
DTITLE=Mr Boogie Woogie and Friends from Arizona - Hot enough for ya?
DYEAR=1900
DGENRE=Blues
TTITLE0=Hot enough for ya?
TTITLE1=They call me Mr Boogie Woogie
TTITLE2=Blues all day
TTITLE3=Make up Your Mind
EXTD=
EXTT0=
EXTT1=
EXTT2=
EXTT3=
PLAYORDER=
